<?xml version="1.0" encoding="UTF-8" standalone="no"?><!DOCTYPE svg PUBLIC "-//W3C//DTD SVG 1.1//EN" "http://www.w3.org/Graphics/SVG/1.1/DTD/svg11.dtd"><svg width="100%" height="100%" viewBox="0 0 900 500" version="1.1" xmlns="http://www.w3.org/2000/svg" xmlns:xlink="http://www.w3.org/1999/xlink" xml:space="preserve" style="fill-rule:evenodd;clip-rule:evenodd;stroke-linejoin:round;stroke-miterlimit:1.41421;"><rect id="Artboard1" x="0" y="0" width="900" height="500" style="fill:none;"/><clipPath id="_clip1"><rect x="0" y="0" width="900" height="500"/></clipPath><g clip-path="url(#_clip1)"><rect x="0" y="0" width="900" height="500"/><g><g><rect x="215.367" y="144.653" width="477.266" height="145.109" style="fill:#fff;"/><path d="M268.384,-246.054c-9.497,0 -18.823,3.708 -25.802,10.688l-51.896,51.883c-6.833,6.846 -10.676,16.123 -10.676,25.802l0,103.779c0,9.679 3.843,18.956 10.676,25.79l41.208,41.208l0,218.404c0,46.168 43.056,83.582 116.291,102.21c6.675,7.429 16.366,12.111 27.139,12.111l152.513,0c11.308,0 21.413,-5.156 28.1,-13.23c70.658,-19.004 112.157,-55.969 112.157,-101.091l0,-218.404l41.208,-41.208c6.845,-6.834 10.688,-16.111 10.688,-25.79l0,-103.779c0,-9.679 -3.843,-18.956 -10.688,-25.802l-51.896,-51.883c-6.979,-6.98 -16.305,-10.688 -25.802,-10.688c-4.693,0 -9.435,0.912 -13.946,2.772c-13.631,5.654 -22.519,18.956 -22.519,33.706l0,42.277c-34.472,-15.442 -79.437,-24.999 -131.113,-26.568c-3.697,-0.17 -8.402,-0.292 -14.032,-0.292c-52.2,0 -104.728,9.108 -145.145,26.945l0,-42.362c0,-14.75 -8.888,-28.052 -22.519,-33.706c-4.511,-1.86 -9.253,-2.772 -13.946,-2.772m363.232,36.478l51.896,51.895l0,103.779l-51.896,51.896l0,233.506c0,31.03 -42.484,57.744 -103.779,70.243l0,7.6l-152.513,0l0,-6.943c-63.021,-12.208 -106.952,-39.323 -106.952,-70.9l0,-233.506l-51.884,-51.896l0,-103.779l51.884,-51.895l0,129.726c0,-42.982 81.32,-77.831 181.622,-77.831c4.997,0 9.168,0.11 12.925,0.28c94.246,2.845 168.697,36.441 168.697,77.551l0,-129.726" style="fill-rule:nonzero;"/><path d="M449.996,127.716c0.002,-42.981 34.85,-77.828 77.844,-77.828c42.983,0 77.831,34.848 77.831,77.831c0,42.983 -34.848,77.832 -77.831,77.832l-0.009,0l0,103.787l-152.501,0l0,-103.851c-1.05,0.042 -2.105,0.064 -3.165,0.064c-42.995,0 -77.843,-34.849 -77.843,-77.832c0,-42.983 34.848,-77.831 77.843,-77.831c42.982,0 77.829,34.847 77.831,77.828l0,0Z"/><path d="M494.289,172.012c10.128,10.128 34.775,1.921 55.045,-18.348c20.257,-20.258 28.477,-44.905 18.336,-55.033c-10.129,-10.141 -34.776,-1.921 -55.033,18.336c-20.269,20.269 -28.477,44.916 -18.348,55.045" style="fill:#fff;"/><path d="M405.704,172.012c10.129,-10.129 1.921,-34.776 -18.348,-55.045c-20.258,-20.257 -44.904,-28.477 -55.033,-18.336c-10.141,10.128 -1.921,34.775 18.336,55.033c20.27,20.269 44.916,28.476 55.045,18.348" style="fill:#fff;"/></g><g transform="matrix(1.92139,0,0,1.94583,-115.917,-1535.66)"><text x="167.36px" y="987.145px" style="font-family:'Impact', sans-serif;font-stretch:condensed;font-size:40.982px;fill:none;">MIGHTY<tspan x="292.165px " y="987.145px ">S</tspan>TUD</text><text x="377.31px" y="987.145px" style="font-family:'Impact', sans-serif;font-stretch:condensed;font-size:57.374px;fill:none;">.</text><text x="387.899px" y="987.145px" style="font-family:'Impact', sans-serif;font-stretch:condensed;font-size:40.982px;fill:none;">IO</text><text x="167.36px" y="987.145px" style="font-family:'Impact', sans-serif;font-stretch:condensed;font-size:40.982px;fill:#fff;">MIGHTY<tspan x="292.165px " y="987.145px ">S</tspan>TUD</text><text x="377.31px" y="987.145px" style="font-family:'Impact', sans-serif;font-stretch:condensed;font-size:57.374px;fill:#fff;">.</text><text x="387.899px" y="987.145px" style="font-family:'Impact', sans-serif;font-stretch:condensed;font-size:40.982px;fill:#fff;">IO</text></g></g></g></svg>