<?xml version="1.0" encoding="UTF-8" standalone="no"?><!DOCTYPE svg PUBLIC "-//W3C//DTD SVG 1.1//EN" "http://www.w3.org/Graphics/SVG/1.1/DTD/svg11.dtd"><svg width="100%" height="100%" viewBox="0 0 900 500" version="1.1" xmlns="http://www.w3.org/2000/svg" xmlns:xlink="http://www.w3.org/1999/xlink" xml:space="preserve" style="fill-rule:evenodd;clip-rule:evenodd;stroke-linejoin:round;stroke-miterlimit:1.41421;"><rect id="Artboard1" x="0" y="0" width="900" height="500" style="fill:none;"/><clipPath id="_clip1"><rect x="0" y="0" width="900" height="500"/></clipPath><g clip-path="url(#_clip1)"><rect x="0" y="0" width="900" height="500"/><g><g><rect x="215.367" y="144.653" width="477.266" height="145.109" style="fill:#fff;"/><path d="M268.384,-246.054c-9.497,0 -18.823,3.708 -25.802,10.688l-51.896,51.883c-6.833,6.846 -10.676,16.123 -10.676,25.802l0,103.779c0,9.679 3.843,18.956 10.676,25.79l41.208,41.208l0,218.404c0,46.168 43.056,83.582 116.291,102.21c6.675,7.429 16.366,12.111 27.139,12.111l152.513,0c11.308,0 21.413,-5.156 28.1,-13.23c70.658,-19.004 112.157,-55.969 112.157,-101.091l0,-218.404l41.208,-41.208c6.845,-6.834 10.688,-16.111 10.688,-25.79l0,-103.779c0,-9.679 -3.843,-18.956 -10.688,-25.802l-51.896,-51.883c-6.979,-6.98 -16.305,-10.688 -25.802,-10.688c-4.693,0 -9.435,0.912 -13.946,2.772c-13.631,5.654 -22.519,18.956 -22.519,33.706l0,42.277c-34.472,-15.442 -79.437,-24.999 -131.113,-26.568c-3.697,-0.17 -8.402,-0.292 -14.032,-0.292c-52.2,0 -104.728,9.108 -145.145,26.945l0,-42.362c0,-14.75 -8.888,-28.052 -22.519,-33.706c-4.511,-1.86 -9.253,-2.772 -13.946,-2.772m363.232,36.478l51.896,51.895l0,103.779l-51.896,51.896l0,233.506c0,31.03 -42.484,57.744 -103.779,70.243l0,7.6l-152.513,0l0,-6.943c-63.021,-12.208 -106.952,-39.323 -106.952,-70.9l0,-233.506l-51.884,-51.896l0,-103.779l51.884,-51.895l0,129.726c0,-42.982 81.32,-77.831 181.622,-77.831c4.997,0 9.168,0.11 12.925,0.28c94.246,2.845 168.697,36.441 168.697,77.551l0,-129.726" style="fill-rule:nonzero;"/><path d="M449.996,127.716c0.002,-42.981 34.85,-77.828 77.844,-77.828c42.983,0 77.831,34.848 77.831,77.831c0,42.983 -34.848,77.832 -77.831,77.832l-0.009,0l0,103.787l-152.501,0l0,-103.851c-1.05,0.042 -2.105,0.064 -3.165,0.064c-42.995,0 -77.843,-34.849 -77.843,-77.832c0,-42.983 34.848,-77.831 77.843,-77.831c42.982,0 77.829,34.847 77.831,77.828l0,0Z"/><path d="M494.289,172.012c10.128,10.128 34.775,1.921 55.045,-18.348c20.257,-20.258 28.477,-44.905 18.336,-55.033c-10.129,-10.141 -34.776,-1.921 -55.033,18.336c-20.269,20.269 -28.477,44.916 -18.348,55.045" style="fill:#fff;"/><path d="M405.704,172.012c10.129,-10.129 1.921,-34.776 -18.348,-55.045c-20.258,-20.257 -44.904,-28.477 -55.033,-18.336c-10.141,10.128 -1.921,34.775 18.336,55.033c20.27,20.269 44.916,28.476 55.045,18.348" style="fill:#fff;"/></g><g transform="matrix(1.92139,0,0,1.94583,-115.917,-1535.66)"><path d="M195.034,954.748l0,32.397l-7.364,0l0,-21.872l-2.941,21.872l-5.223,0l-3.102,-21.372l0,21.372l-7.363,0l0,-32.397l10.905,0c0.32,1.947 0.661,4.242 1.021,6.883l1.16,8.244l1.921,-15.127l10.986,0Z" style="fill:none;"/><rect x="198.416" y="954.748" width="8.424" height="32.397" style="fill:none;"/><path d="M229.552,966.674l-8.424,0l0,-2.942c0,-1.854 -0.08,-3.015 -0.24,-3.482c-0.16,-0.466 -0.541,-0.7 -1.141,-0.7c-0.52,0 -0.874,0.2 -1.06,0.6c-0.187,0.401 -0.281,1.428 -0.281,3.082l0,15.548c0,1.454 0.094,2.411 0.281,2.872c0.186,0.46 0.56,0.69 1.12,0.69c0.614,0 1.031,-0.26 1.251,-0.78c0.22,-0.521 0.33,-1.535 0.33,-3.042l0,-3.842l-1.701,0l0,-4.923l9.865,0l0,17.39l-5.303,0l-0.78,-2.322c-0.574,1.001 -1.297,1.751 -2.171,2.252c-0.874,0.5 -1.904,0.75 -3.092,0.75c-1.414,0 -2.738,-0.344 -3.972,-1.031c-1.234,-0.687 -2.171,-1.537 -2.811,-2.551c-0.641,-1.014 -1.041,-2.078 -1.201,-3.192c-0.16,-1.114 -0.24,-2.784 -0.24,-5.012l0,-9.625c0,-3.095 0.167,-5.343 0.5,-6.744c0.334,-1.401 1.291,-2.685 2.872,-3.852c1.581,-1.167 3.625,-1.751 6.133,-1.751c2.468,0 4.516,0.507 6.143,1.521c1.628,1.014 2.688,2.218 3.182,3.612c0.493,1.394 0.74,3.418 0.74,6.073l0,1.401Z" style="fill:none;"/><path d="M252.184,954.748l0,32.397l-8.424,0l0,-13.608l-2.522,0l0,13.608l-8.424,0l0,-32.397l8.424,0l0,11.586l2.522,0l0,-11.586l8.424,0Z" style="fill:none;"/><path d="M272.535,954.748l0,6.483l-5.003,0l0,25.914l-8.424,0l0,-25.914l-4.983,0l0,-6.483l18.41,0Z" style="fill:none;"/><path d="M292.405,954.748l-6.143,20.67l0,11.727l-7.804,0l0,-11.727l-5.923,-20.67l7.744,0c1.214,6.31 1.894,10.558 2.041,12.746c0.467,-3.455 1.247,-7.704 2.341,-12.746l7.744,0Z" style="fill:none;"/><path d="M311.695,964.553l-7.824,0l0,-2.402c0,-1.12 -0.1,-1.834 -0.3,-2.141c-0.2,-0.307 -0.533,-0.46 -1,-0.46c-0.507,0 -0.891,0.207 -1.151,0.62c-0.26,0.414 -0.39,1.041 -0.39,1.881c0,1.081 0.147,1.895 0.44,2.442c0.28,0.547 1.074,1.207 2.381,1.981c3.749,2.228 6.11,4.055 7.084,5.483c0.974,1.427 1.461,3.728 1.461,6.903c0,2.308 -0.27,4.009 -0.811,5.103c-0.54,1.094 -1.584,2.011 -3.131,2.751c-1.548,0.741 -3.349,1.111 -5.403,1.111c-2.255,0 -4.179,-0.427 -5.773,-1.281c-1.594,-0.854 -2.638,-1.941 -3.132,-3.261c-0.493,-1.321 -0.74,-3.195 -0.74,-5.623l0,-2.122l7.824,0l0,3.943c0,1.213 0.11,1.994 0.33,2.341c0.22,0.347 0.61,0.52 1.171,0.52c0.56,0 0.977,-0.22 1.25,-0.66c0.274,-0.441 0.411,-1.094 0.411,-1.961c0,-1.908 -0.261,-3.155 -0.781,-3.742c-0.533,-0.587 -1.847,-1.568 -3.942,-2.942c-2.094,-1.387 -3.482,-2.394 -4.162,-3.021c-0.68,-0.627 -1.244,-1.495 -1.691,-2.602c-0.447,-1.107 -0.67,-2.521 -0.67,-4.242c0,-2.481 0.317,-4.296 0.95,-5.443c0.634,-1.147 1.658,-2.044 3.072,-2.691c1.414,-0.647 3.121,-0.971 5.122,-0.971c2.188,0 4.053,0.354 5.593,1.061c1.541,0.707 2.562,1.597 3.062,2.671c0.5,1.074 0.75,2.898 0.75,5.473l0,1.281Z" style="fill:none;"/><path d="M332.006,954.748l0,6.483l-5.003,0l0,25.914l-8.424,0l0,-25.914l-4.983,0l0,-6.483l18.41,0Z" style="fill:none;"/><path d="M353.077,954.748l0,21.651c0,2.455 -0.08,4.179 -0.24,5.173c-0.16,0.993 -0.634,2.014 -1.421,3.061c-0.787,1.047 -1.824,1.841 -3.111,2.381c-1.288,0.541 -2.805,0.811 -4.553,0.811c-1.934,0 -3.642,-0.32 -5.122,-0.961c-1.481,-0.64 -2.588,-1.474 -3.322,-2.501c-0.734,-1.027 -1.167,-2.111 -1.301,-3.252c-0.133,-1.14 -0.2,-3.538 -0.2,-7.193l0,-19.17l8.424,0l0,24.292c0,1.414 0.077,2.318 0.231,2.712c0.153,0.393 0.463,0.59 0.93,0.59c0.534,0 0.877,-0.217 1.031,-0.65c0.153,-0.434 0.23,-1.458 0.23,-3.072l0,-23.872l8.424,0Z" style="fill:none;"/><path d="M356.339,954.748l6.303,0c4.069,0 6.82,0.186 8.255,0.56c1.434,0.373 2.524,0.987 3.271,1.841c0.747,0.854 1.214,1.804 1.401,2.851c0.187,1.048 0.28,3.105 0.28,6.174l0,11.345c0,2.909 -0.137,4.853 -0.41,5.834c-0.274,0.98 -0.751,1.747 -1.431,2.301c-0.68,0.553 -1.521,0.94 -2.521,1.16c-1.001,0.22 -2.508,0.331 -4.523,0.331l-10.625,0l0,-32.397Zm8.424,5.542l0,21.312c1.214,0 1.961,-0.244 2.241,-0.731c0.281,-0.487 0.421,-1.811 0.421,-3.972l0,-12.586c0,-1.468 -0.047,-2.408 -0.14,-2.822c-0.094,-0.413 -0.307,-0.717 -0.641,-0.91c-0.333,-0.194 -0.96,-0.291 -1.881,-0.291Z" style="fill:none;"/><rect x="378.318" y="977.9" width="8.544" height="9.245" style="fill:none;"/><rect x="389.58" y="954.748" width="8.424" height="32.397" style="fill:none;"/><path d="M420.637,973.717c0,3.256 -0.077,5.56 -0.231,6.914c-0.153,1.354 -0.633,2.591 -1.44,3.712c-0.807,1.121 -1.898,1.981 -3.272,2.581c-1.374,0.601 -2.975,0.901 -4.802,0.901c-1.735,0 -3.292,-0.284 -4.673,-0.851c-1.381,-0.567 -2.491,-1.417 -3.332,-2.551c-0.84,-1.134 -1.34,-2.368 -1.5,-3.702c-0.161,-1.334 -0.241,-3.668 -0.241,-7.004l0,-5.542c0,-3.255 0.077,-5.56 0.231,-6.914c0.153,-1.354 0.633,-2.591 1.44,-3.712c0.807,-1.121 1.898,-1.981 3.272,-2.581c1.374,-0.601 2.975,-0.901 4.803,-0.901c1.734,0 3.291,0.284 4.672,0.851c1.381,0.567 2.491,1.417 3.332,2.551c0.84,1.134 1.34,2.368 1.5,3.702c0.161,1.334 0.241,3.668 0.241,7.004l0,5.542Zm-8.425,-10.645c0,-1.508 -0.083,-2.471 -0.25,-2.892c-0.167,-0.42 -0.51,-0.63 -1.03,-0.63c-0.441,0 -0.778,0.17 -1.011,0.51c-0.233,0.341 -0.35,1.344 -0.35,3.012l0,15.128c0,1.881 0.077,3.041 0.23,3.482c0.153,0.44 0.51,0.66 1.07,0.66c0.574,0 0.941,-0.253 1.101,-0.76c0.16,-0.507 0.24,-1.715 0.24,-3.622l0,-14.888Z" style="fill:none;"/><path d="M195.034,954.748l0,32.397l-7.364,0l0,-21.872l-2.941,21.872l-5.223,0l-3.102,-21.372l0,21.372l-7.363,0l0,-32.397l10.905,0c0.32,1.947 0.661,4.242 1.021,6.883l1.16,8.244l1.921,-15.127l10.986,0Z" style="fill:#fff;fill-rule:nonzero;"/><rect x="198.416" y="954.748" width="8.424" height="32.397" style="fill:#fff;fill-rule:nonzero;"/><path d="M229.552,966.674l-8.424,0l0,-2.942c0,-1.854 -0.08,-3.015 -0.24,-3.482c-0.16,-0.466 -0.541,-0.7 -1.141,-0.7c-0.52,0 -0.874,0.2 -1.06,0.6c-0.187,0.401 -0.281,1.428 -0.281,3.082l0,15.548c0,1.454 0.094,2.411 0.281,2.872c0.186,0.46 0.56,0.69 1.12,0.69c0.614,0 1.031,-0.26 1.251,-0.78c0.22,-0.521 0.33,-1.535 0.33,-3.042l0,-3.842l-1.701,0l0,-4.923l9.865,0l0,17.39l-5.303,0l-0.78,-2.322c-0.574,1.001 -1.297,1.751 -2.171,2.252c-0.874,0.5 -1.904,0.75 -3.092,0.75c-1.414,0 -2.738,-0.344 -3.972,-1.031c-1.234,-0.687 -2.171,-1.537 -2.811,-2.551c-0.641,-1.014 -1.041,-2.078 -1.201,-3.192c-0.16,-1.114 -0.24,-2.784 -0.24,-5.012l0,-9.625c0,-3.095 0.167,-5.343 0.5,-6.744c0.334,-1.401 1.291,-2.685 2.872,-3.852c1.581,-1.167 3.625,-1.751 6.133,-1.751c2.468,0 4.516,0.507 6.143,1.521c1.628,1.014 2.688,2.218 3.182,3.612c0.493,1.394 0.74,3.418 0.74,6.073l0,1.401Z" style="fill:#fff;fill-rule:nonzero;"/><path d="M252.184,954.748l0,32.397l-8.424,0l0,-13.608l-2.522,0l0,13.608l-8.424,0l0,-32.397l8.424,0l0,11.586l2.522,0l0,-11.586l8.424,0Z" style="fill:#fff;fill-rule:nonzero;"/><path d="M272.535,954.748l0,6.483l-5.003,0l0,25.914l-8.424,0l0,-25.914l-4.983,0l0,-6.483l18.41,0Z" style="fill:#fff;fill-rule:nonzero;"/><path d="M292.405,954.748l-6.143,20.67l0,11.727l-7.804,0l0,-11.727l-5.923,-20.67l7.744,0c1.214,6.31 1.894,10.558 2.041,12.746c0.467,-3.455 1.247,-7.704 2.341,-12.746l7.744,0Z" style="fill:#fff;fill-rule:nonzero;"/><path d="M311.695,964.553l-7.824,0l0,-2.402c0,-1.12 -0.1,-1.834 -0.3,-2.141c-0.2,-0.307 -0.533,-0.46 -1,-0.46c-0.507,0 -0.891,0.207 -1.151,0.62c-0.26,0.414 -0.39,1.041 -0.39,1.881c0,1.081 0.147,1.895 0.44,2.442c0.28,0.547 1.074,1.207 2.381,1.981c3.749,2.228 6.11,4.055 7.084,5.483c0.974,1.427 1.461,3.728 1.461,6.903c0,2.308 -0.27,4.009 -0.811,5.103c-0.54,1.094 -1.584,2.011 -3.131,2.751c-1.548,0.741 -3.349,1.111 -5.403,1.111c-2.255,0 -4.179,-0.427 -5.773,-1.281c-1.594,-0.854 -2.638,-1.941 -3.132,-3.261c-0.493,-1.321 -0.74,-3.195 -0.74,-5.623l0,-2.122l7.824,0l0,3.943c0,1.213 0.11,1.994 0.33,2.341c0.22,0.347 0.61,0.52 1.171,0.52c0.56,0 0.977,-0.22 1.25,-0.66c0.274,-0.441 0.411,-1.094 0.411,-1.961c0,-1.908 -0.261,-3.155 -0.781,-3.742c-0.533,-0.587 -1.847,-1.568 -3.942,-2.942c-2.094,-1.387 -3.482,-2.394 -4.162,-3.021c-0.68,-0.627 -1.244,-1.495 -1.691,-2.602c-0.447,-1.107 -0.67,-2.521 -0.67,-4.242c0,-2.481 0.317,-4.296 0.95,-5.443c0.634,-1.147 1.658,-2.044 3.072,-2.691c1.414,-0.647 3.121,-0.971 5.122,-0.971c2.188,0 4.053,0.354 5.593,1.061c1.541,0.707 2.562,1.597 3.062,2.671c0.5,1.074 0.75,2.898 0.75,5.473l0,1.281Z" style="fill:#fff;fill-rule:nonzero;"/><path d="M332.006,954.748l0,6.483l-5.003,0l0,25.914l-8.424,0l0,-25.914l-4.983,0l0,-6.483l18.41,0Z" style="fill:#fff;fill-rule:nonzero;"/><path d="M353.077,954.748l0,21.651c0,2.455 -0.08,4.179 -0.24,5.173c-0.16,0.993 -0.634,2.014 -1.421,3.061c-0.787,1.047 -1.824,1.841 -3.111,2.381c-1.288,0.541 -2.805,0.811 -4.553,0.811c-1.934,0 -3.642,-0.32 -5.122,-0.961c-1.481,-0.64 -2.588,-1.474 -3.322,-2.501c-0.734,-1.027 -1.167,-2.111 -1.301,-3.252c-0.133,-1.14 -0.2,-3.538 -0.2,-7.193l0,-19.17l8.424,0l0,24.292c0,1.414 0.077,2.318 0.231,2.712c0.153,0.393 0.463,0.59 0.93,0.59c0.534,0 0.877,-0.217 1.031,-0.65c0.153,-0.434 0.23,-1.458 0.23,-3.072l0,-23.872l8.424,0Z" style="fill:#fff;fill-rule:nonzero;"/><path d="M356.339,954.748l6.303,0c4.069,0 6.82,0.186 8.255,0.56c1.434,0.373 2.524,0.987 3.271,1.841c0.747,0.854 1.214,1.804 1.401,2.851c0.187,1.048 0.28,3.105 0.28,6.174l0,11.345c0,2.909 -0.137,4.853 -0.41,5.834c-0.274,0.98 -0.751,1.747 -1.431,2.301c-0.68,0.553 -1.521,0.94 -2.521,1.16c-1.001,0.22 -2.508,0.331 -4.523,0.331l-10.625,0l0,-32.397Zm8.424,5.542l0,21.312c1.214,0 1.961,-0.244 2.241,-0.731c0.281,-0.487 0.421,-1.811 0.421,-3.972l0,-12.586c0,-1.468 -0.047,-2.408 -0.14,-2.822c-0.094,-0.413 -0.307,-0.717 -0.641,-0.91c-0.333,-0.194 -0.96,-0.291 -1.881,-0.291Z" style="fill:#fff;fill-rule:nonzero;"/><rect x="378.318" y="977.9" width="8.544" height="9.245" style="fill:#fff;fill-rule:nonzero;"/><rect x="389.58" y="954.748" width="8.424" height="32.397" style="fill:#fff;fill-rule:nonzero;"/><path d="M420.637,973.717c0,3.256 -0.077,5.56 -0.231,6.914c-0.153,1.354 -0.633,2.591 -1.44,3.712c-0.807,1.121 -1.898,1.981 -3.272,2.581c-1.374,0.601 -2.975,0.901 -4.802,0.901c-1.735,0 -3.292,-0.284 -4.673,-0.851c-1.381,-0.567 -2.491,-1.417 -3.332,-2.551c-0.84,-1.134 -1.34,-2.368 -1.5,-3.702c-0.161,-1.334 -0.241,-3.668 -0.241,-7.004l0,-5.542c0,-3.255 0.077,-5.56 0.231,-6.914c0.153,-1.354 0.633,-2.591 1.44,-3.712c0.807,-1.121 1.898,-1.981 3.272,-2.581c1.374,-0.601 2.975,-0.901 4.803,-0.901c1.734,0 3.291,0.284 4.672,0.851c1.381,0.567 2.491,1.417 3.332,2.551c0.84,1.134 1.34,2.368 1.5,3.702c0.161,1.334 0.241,3.668 0.241,7.004l0,5.542Zm-8.425,-10.645c0,-1.508 -0.083,-2.471 -0.25,-2.892c-0.167,-0.42 -0.51,-0.63 -1.03,-0.63c-0.441,0 -0.778,0.17 -1.011,0.51c-0.233,0.341 -0.35,1.344 -0.35,3.012l0,15.128c0,1.881 0.077,3.041 0.23,3.482c0.153,0.44 0.51,0.66 1.07,0.66c0.574,0 0.941,-0.253 1.101,-0.76c0.16,-0.507 0.24,-1.715 0.24,-3.622l0,-14.888Z" style="fill:#fff;fill-rule:nonzero;"/></g></g></g></svg>